<svg width="24" height="20" viewBox="0 0 24 20" fill="none" xmlns="http://www.w3.org/2000/svg">
<path d="M9.42885 14.2859L5.14314 4.85728L0.857422 14.2859M9.42885 14.2859C9.42885 15.4225 8.97732 16.5126 8.17359 17.3163C7.36987 18.12 6.27978 18.5716 5.14314 18.5716C4.00649 18.5716 2.91641 18.12 2.11268 17.3163C1.30895 16.5126 0.857422 15.4225 0.857422 14.2859M9.42885 14.2859H0.857422M23.1431 14.2859L18.8574 4.85728L14.5717 14.2859M23.1431 14.2859C23.1431 15.4225 22.6916 16.5126 21.8879 17.3163C21.0842 18.12 19.9941 18.5716 18.8574 18.5716C17.7208 18.5716 16.6307 18.12 15.827 17.3163C15.0232 16.5126 14.5717 15.4225 14.5717 14.2859M23.1431 14.2859H14.5717M2.57171 4.85728H21.4289M12.0003 4.85728V1.42871" stroke="#121517" stroke-width="1.3" stroke-linecap="round" stroke-linejoin="round"/>
</svg>
