<svg width="24" height="24" viewBox="0 0 24 24" fill="none" xmlns="http://www.w3.org/2000/svg">
<path fill-rule="evenodd" clip-rule="evenodd" d="M21.6255 3.47661C21.9676 3.36776 22.1567 3.00221 22.0479 2.66012C21.939 2.31804 21.5735 2.12896 21.2314 2.2378L12.6499 4.96828V3.42863C12.6499 3.06965 12.3589 2.77863 11.9999 2.77863C11.6409 2.77863 11.3499 3.06965 11.3499 3.42863V5.38191L2.37423 8.2378C2.03215 8.34665 1.84307 8.7122 1.95192 9.05429C2.06076 9.39637 2.42631 9.58545 2.7684 9.47661L4.38033 8.96372L0.265293 18.0168C0.226897 18.1013 0.207031 18.193 0.207031 18.2858C0.207031 19.5948 0.727043 20.8502 1.65267 21.7759C2.57829 22.7015 3.83371 23.2215 5.14275 23.2215C6.45178 23.2215 7.7072 22.7015 8.63282 21.7759C9.55845 20.8502 10.0785 19.5948 10.0785 18.2858C10.0785 18.193 10.0586 18.1013 10.0202 18.0168L5.73448 8.58823C5.72706 8.57191 5.71902 8.556 5.71039 8.54052L11.3499 6.74613V6.85721C11.3499 7.21619 11.6409 7.50721 11.9999 7.50721C12.3589 7.50721 12.6499 7.21619 12.6499 6.85721V6.3325L17.7565 4.70768L13.9796 13.0168C13.9412 13.1013 13.9213 13.193 13.9213 13.2858C13.9213 14.5948 14.4413 15.8502 15.367 16.7759C16.2926 17.7015 17.548 18.2215 18.857 18.2215C20.1661 18.2215 21.4215 17.7015 22.3471 16.7759C23.2727 15.8502 23.7927 14.5948 23.7927 13.2858C23.7927 13.193 23.7729 13.1013 23.7345 13.0168L19.6795 4.09581L21.6255 3.47661ZM15.5808 12.6358L18.857 5.428L22.1333 12.6358H15.5808ZM1.86648 17.6358H8.41901L5.14275 10.428L1.86648 17.6358Z" fill="#8D418F"/>
</svg>
