<svg width="24" height="24" viewBox="0 0 24 24" fill="none" xmlns="http://www.w3.org/2000/svg">
<path d="M8.00446 19.6853C9.36161 20.4487 10.8884 20.8304 12.5 20.8304C14.1964 20.8304 15.7656 20.4063 17.2076 19.558C18.6496 18.7098 19.8371 17.5647 20.6853 16.1228C21.5335 14.6808 22 13.1116 22 11.4152C22 10.1853 21.7455 8.99777 21.2366 7.85268C20.7277 6.70759 20.0491 5.68973 19.1585 4.7567C18.2254 3.90848 17.2076 3.22991 16.0625 2.72098C14.9174 2.25446 13.7299 2 12.5 2C10.8036 2 9.23438 2.42411 7.79241 3.27232C6.35045 4.12054 5.20536 5.26562 4.35714 6.70759C3.50893 8.14955 3.08482 9.71875 3.08482 11.4152C3.08482 12.9673 3.43986 14.413 4.14993 15.7521C4.27705 15.9918 4.31605 16.2704 4.24331 16.5319L3.23343 20.1611C3.12996 20.5329 3.46889 20.8768 3.84217 20.7788L8.00446 19.6853ZM8.00446 19.6853L10.5 18.5" stroke="#121517" stroke-width="1.3"/>
<path d="M15.6578 12.9451L15.7511 13.0119C15.8756 13.0788 15.9689 13.1456 16 13.179C16 13.2458 16 13.3461 16 13.5131C16 13.7136 15.9378 13.8807 15.8756 14.0811C15.8133 14.2816 15.6267 14.4487 15.3778 14.6492C15.1289 14.8496 14.9111 14.9499 14.7244 14.9499C14.4133 15.0167 14.1333 15.0167 13.8844 14.9499C13.5733 14.8831 13.1378 14.7494 12.64 14.4821C11.5822 14.0143 10.6178 13.0788 9.74667 11.7422L9.68444 11.6754C9.21778 11.0072 9 10.3723 9 9.77088C9 9.20286 9.18667 8.70167 9.56 8.2673L9.59111 8.23389C9.71556 8.10024 9.87111 8 10.0578 8H10.4311C10.4933 8 10.5556 8.03341 10.6178 8.06683C10.68 8.10024 10.7111 8.16706 10.7733 8.30072L11.3022 9.67064C11.3644 9.8043 11.3644 9.93795 11.3333 10.0048C11.2089 10.2387 11.0844 10.4391 10.9289 10.6062C10.8356 10.7064 10.7733 10.7733 10.7733 10.8401C10.7422 10.9069 10.7733 10.9403 10.8356 11.0072C11.1156 11.6086 11.4578 12.043 11.8622 12.3771C12.1422 12.6444 12.5778 12.9117 13.1689 13.2124C13.3244 13.3126 13.4489 13.3126 13.5422 13.179C13.7911 12.8449 13.9778 12.611 14.1022 12.4439C14.1333 12.3771 14.1956 12.3103 14.2578 12.3103C14.32 12.3103 14.3822 12.3437 14.4756 12.3437C14.6311 12.4105 15.0356 12.611 15.6578 12.9451Z" fill="#121517"/>
</svg>
