<svg width="48" height="48" viewBox="0 0 48 48" fill="none" xmlns="http://www.w3.org/2000/svg">
<rect width="48" height="48" rx="24" fill="#353535"/>
<path fill-rule="evenodd" clip-rule="evenodd" d="M23.9003 33.3337C18.8247 33.2804 14.7203 29.1759 14.667 24.1003C18.8002 24.227 20.6869 24.3337 22.2002 25.8004C23.6669 27.3138 23.767 29.2005 23.9003 33.3337ZM33.3337 24.1003C33.2804 29.1759 29.1759 33.2804 24.1003 33.3337C24.227 29.2005 24.3337 27.3138 25.8004 25.8004C27.3138 24.3337 29.2005 24.2337 33.3337 24.1003ZM24.1003 14.667C29.1759 14.7203 33.2804 18.8247 33.3337 23.9003C29.2005 23.767 27.3138 23.6669 25.8004 22.2002C24.3337 20.6869 24.227 18.8002 24.1003 14.667ZM14.667 23.9003C14.7203 18.8247 18.8247 14.7203 23.9003 14.667C23.7736 18.8002 23.6669 20.6869 22.2002 22.2002C20.6869 23.6669 18.8002 23.767 14.667 23.9003Z" fill="#CDCDCD"/>
</svg>
