<svg width="28" height="24" viewBox="0 0 28 24" fill="none" xmlns="http://www.w3.org/2000/svg">
<path fill-rule="evenodd" clip-rule="evenodd" d="M3.07696 3.27513C4.27713 2.07532 5.90471 1.4013 7.60176 1.4013C9.29881 1.4013 10.9264 2.07532 12.1266 3.27513L14.0018 5.14873L15.877 3.27513C16.4673 2.66387 17.1735 2.1763 17.9544 1.84088C18.7352 1.50547 19.575 1.32892 20.4248 1.32153C21.2746 1.31415 22.1173 1.47608 22.9039 1.79787C23.6904 2.11967 24.405 2.59489 25.0059 3.19581C25.6068 3.79672 26.082 4.51129 26.4038 5.29783C26.7256 6.08436 26.8875 6.92711 26.8802 7.7769C26.8728 8.62669 26.6962 9.4665 26.3608 10.2473C26.0254 11.0281 25.5378 11.7344 24.9266 12.3247L14.0018 23.2511L3.07696 12.3247C1.87714 11.1246 1.20312 9.49698 1.20312 7.79993C1.20313 6.10288 1.87714 4.47531 3.07696 3.27513V3.27513Z" fill="black" fill-opacity="0.6" stroke="white" stroke-width="1.3" stroke-linejoin="round"/>
</svg>
