<svg width="28" height="24" viewBox="0 0 28 24" fill="none" xmlns="http://www.w3.org/2000/svg">
<path fill-rule="evenodd" clip-rule="evenodd" d="M3.07647 3.27513C4.27665 2.07532 5.90422 1.4013 7.60127 1.4013C9.29832 1.4013 10.9259 2.07532 12.1261 3.27513L14.0013 5.14873L15.8765 3.27513C16.4668 2.66387 17.1731 2.1763 17.9539 1.84088C18.7347 1.50547 19.5745 1.32892 20.4243 1.32153C21.2741 1.31415 22.1168 1.47608 22.9034 1.79787C23.6899 2.11967 24.4045 2.59489 25.0054 3.19581C25.6063 3.79672 26.0815 4.51129 26.4033 5.29783C26.7251 6.08436 26.8871 6.92711 26.8797 7.7769C26.8723 8.62669 26.6957 9.4665 26.3603 10.2473C26.0249 11.0281 25.5373 11.7344 24.9261 12.3247L14.0013 23.2511L3.07647 12.3247C1.87665 11.1246 1.20264 9.49698 1.20264 7.79993C1.20264 6.10288 1.87665 4.47531 3.07647 3.27513V3.27513Z" fill="#F14267" stroke="#F14267" stroke-width="1.3" stroke-linejoin="round"/>
</svg>
