<svg width="28" height="25" viewBox="0 0 28 25" fill="none" xmlns="http://www.w3.org/2000/svg">
<path fill-rule="evenodd" clip-rule="evenodd" d="M3.07439 3.27513C4.27457 2.07532 5.90214 1.4013 7.59919 1.4013C9.29624 1.4013 10.9238 2.07532 12.124 3.27513L13.9992 5.14873L15.8744 3.27513C16.4648 2.66387 17.171 2.1763 17.9518 1.84088C18.7326 1.50547 19.5724 1.32892 20.4222 1.32153C21.272 1.31415 22.1148 1.47608 22.9013 1.79787C23.6878 2.11967 24.4024 2.59489 25.0033 3.19581C25.6042 3.79672 26.0795 4.51129 26.4012 5.29783C26.723 6.08436 26.885 6.92711 26.8776 7.7769C26.8702 8.62669 26.6937 9.4665 26.3582 10.2473C26.0228 11.0281 25.5353 11.7344 24.924 12.3247L13.9992 23.2511L3.07439 12.3247C1.87458 11.1246 1.20056 9.49698 1.20056 7.79993C1.20056 6.10288 1.87458 4.47531 3.07439 3.27513V3.27513Z" stroke="#8D418F" stroke-width="2" stroke-linejoin="round"/>
<path fill-rule="evenodd" clip-rule="evenodd" d="M3.07439 3.27513C4.27457 2.07532 5.90214 1.4013 7.59919 1.4013C9.29624 1.4013 10.9238 2.07532 12.124 3.27513L13.9992 5.14873L15.8744 3.27513C16.4648 2.66387 17.171 2.1763 17.9518 1.84088C18.7326 1.50547 19.5724 1.32892 20.4222 1.32153C21.272 1.31415 22.1148 1.47608 22.9013 1.79787C23.6878 2.11967 24.4024 2.59489 25.0033 3.19581C25.6042 3.79672 26.0795 4.51129 26.4012 5.29783C26.723 6.08436 26.885 6.92711 26.8776 7.7769C26.8702 8.62669 26.6937 9.4665 26.3582 10.2473C26.0228 11.0281 25.5353 11.7344 24.924 12.3247L13.9992 23.2511L3.07439 12.3247C1.87458 11.1246 1.20056 9.49698 1.20056 7.79993C1.20056 6.10288 1.87458 4.47531 3.07439 3.27513V3.27513Z" stroke="url(#paint0_linear_2052_2993)" stroke-opacity="0.7" stroke-width="2" stroke-linejoin="round"/>
<path fill-rule="evenodd" clip-rule="evenodd" d="M3.07439 3.27513C4.27457 2.07532 5.90214 1.4013 7.59919 1.4013C9.29624 1.4013 10.9238 2.07532 12.124 3.27513L13.9992 5.14873L15.8744 3.27513C16.4648 2.66387 17.171 2.1763 17.9518 1.84088C18.7326 1.50547 19.5724 1.32892 20.4222 1.32153C21.272 1.31415 22.1148 1.47608 22.9013 1.79787C23.6878 2.11967 24.4024 2.59489 25.0033 3.19581C25.6042 3.79672 26.0795 4.51129 26.4012 5.29783C26.723 6.08436 26.885 6.92711 26.8776 7.7769C26.8702 8.62669 26.6937 9.4665 26.3582 10.2473C26.0228 11.0281 25.5353 11.7344 24.924 12.3247L13.9992 23.2511L3.07439 12.3247C1.87458 11.1246 1.20056 9.49698 1.20056 7.79993C1.20056 6.10288 1.87458 4.47531 3.07439 3.27513V3.27513Z" stroke="url(#paint1_radial_2052_2993)" stroke-opacity="0.4" stroke-width="2" stroke-linejoin="round"/>
<defs>
<linearGradient id="paint0_linear_2052_2993" x1="3.9517" y1="29.6473" x2="34.7346" y2="20.3836" gradientUnits="userSpaceOnUse">
<stop stop-color="#F14267" stop-opacity="0"/>
<stop offset="1" stop-color="#F14267"/>
</linearGradient>
<radialGradient id="paint1_radial_2052_2993" cx="0" cy="0" r="1" gradientUnits="userSpaceOnUse" gradientTransform="translate(-0.801796 1.32129) rotate(42.422) scale(51.4719 151.868)">
<stop offset="0.24" stop-color="#FA4CD4" stop-opacity="0.61"/>
<stop offset="0.61" stop-color="#C0036E" stop-opacity="0"/>
</radialGradient>
</defs>
</svg>
