<svg width="18" height="16" viewBox="0 0 18 16" fill="none" xmlns="http://www.w3.org/2000/svg">
<path fill-rule="evenodd" clip-rule="evenodd" d="M2.17115 2.17232C2.92126 1.42244 3.93849 1.00118 4.99914 1.00118C6.0598 1.00118 7.07703 1.42244 7.82714 2.17232L8.99914 3.34332L10.1711 2.17232C10.5401 1.79028 10.9815 1.48555 11.4695 1.27592C11.9575 1.06628 12.4824 0.955938 13.0135 0.951323C13.5447 0.946708 14.0714 1.04791 14.563 1.24904C15.0545 1.45016 15.5012 1.74717 15.8767 2.12274C16.2523 2.49832 16.5493 2.94492 16.7504 3.43651C16.9516 3.92809 17.0528 4.45481 17.0481 4.98593C17.0435 5.51705 16.9332 6.04193 16.7235 6.52994C16.5139 7.01796 16.2092 7.45934 15.8271 7.82832L8.99914 14.6573L2.17115 7.82832C1.42126 7.07821 1 6.06098 1 5.00032C1 3.93967 1.42126 2.92244 2.17115 2.17232V2.17232Z" stroke="#121517" stroke-width="1.3" stroke-linejoin="round"/>
</svg>
