<svg width="24" height="24" viewBox="0 0 24 24" fill="none" xmlns="http://www.w3.org/2000/svg">
<path d="M15.3744 12.7588L15.0197 12.2141L15.0107 12.22L15.0018 12.2262L15.3744 12.7588ZM15.3744 11.4687L14.9889 11.9921L15.0179 12.0134L15.0491 12.0315L15.3744 11.4687ZM10.2037 7.66122L10.5891 7.13781L10.5707 7.1243L10.5515 7.11211L10.2037 7.66122ZM9.11966 8.22991L9.76975 8.22803L9.76952 8.21665L9.11966 8.22991ZM9.14134 15.709L8.49134 15.7109L8.49139 15.7293L8.49249 15.7476L9.14134 15.709ZM10.2651 16.3323L10.5798 16.901L10.6097 16.8845L10.6376 16.8649L10.2651 16.3323ZM12 20.35C7.38842 20.35 3.65 16.6116 3.65 12H2.35C2.35 17.3295 6.67045 21.65 12 21.65V20.35ZM20.35 12C20.35 16.6116 16.6116 20.35 12 20.35V21.65C17.3295 21.65 21.65 17.3295 21.65 12H20.35ZM12 3.65C16.6116 3.65 20.35 7.38842 20.35 12H21.65C21.65 6.67045 17.3295 2.35 12 2.35V3.65ZM12 2.35C6.67045 2.35 2.35 6.67045 2.35 12H3.65C3.65 7.38842 7.38842 3.65 12 3.65V2.35ZM15.729 13.3036C16.1127 13.0538 16.5201 12.6562 16.5194 12.0942C16.5186 11.5177 16.0927 11.1331 15.6996 10.9059L15.0491 12.0315C15.1677 12.1 15.2181 12.1515 15.234 12.1717C15.2452 12.186 15.2195 12.1579 15.2194 12.096C15.2193 12.0365 15.2432 12.016 15.2236 12.0424C15.201 12.0729 15.1431 12.1338 15.0197 12.2141L15.729 13.3036ZM15.7598 10.9453L10.5891 7.13781L9.81825 8.18463L14.9889 11.9921L15.7598 10.9453ZM10.5515 7.11211C10.1634 6.86628 9.64963 6.74457 9.18025 6.96373C8.67497 7.19965 8.45899 7.71403 8.46979 8.24317L9.76952 8.21665C9.76764 8.12429 9.78551 8.09205 9.78363 8.09563C9.78256 8.09768 9.7777 8.10598 9.76701 8.11633C9.75624 8.12676 9.7434 8.13551 9.73024 8.14166C9.70303 8.15436 9.69349 8.14782 9.71592 8.15097C9.73922 8.15423 9.78813 8.16744 9.85583 8.21032L10.5515 7.11211ZM8.46966 8.23179L8.49134 15.7109L9.79133 15.7071L9.76965 8.22803L8.46966 8.23179ZM8.49249 15.7476C8.52018 16.2128 8.67785 16.7508 9.17342 17.0155C9.66228 17.2766 10.1916 17.1158 10.5798 16.901L9.95035 15.7636C9.8367 15.8264 9.76611 15.8448 9.73584 15.849C9.71078 15.8525 9.73865 15.8436 9.78585 15.8688C9.83414 15.8946 9.84379 15.9246 9.83441 15.9046C9.82223 15.8786 9.79839 15.8081 9.79019 15.6704L8.49249 15.7476ZM10.6376 16.8649L15.7469 13.2915L15.0018 12.2262L9.89255 15.7996L10.6376 16.8649Z" fill="#121517"/>
</svg>
