<svg width="30" height="28" viewBox="0 0 30 28" fill="none" xmlns="http://www.w3.org/2000/svg">
<path d="M14.3275 1.61874C14.6029 1.06068 15.3987 1.06068 15.6741 1.61874L19.2394 8.84291C19.3488 9.06451 19.5602 9.21811 19.8048 9.25365L27.7771 10.4121C28.393 10.5016 28.6389 11.2584 28.1932 11.6928L22.4244 17.316C22.2474 17.4885 22.1667 17.7371 22.2084 17.9806L23.5703 25.9208C23.6755 26.5341 23.0317 27.0019 22.4808 26.7123L15.3502 22.9635C15.1314 22.8485 14.8701 22.8485 14.6514 22.9635L7.52069 26.7123C6.96985 27.0019 6.32606 26.5341 6.43126 25.9208L7.7931 17.9806C7.83487 17.7371 7.75412 17.4885 7.57716 17.316L1.80832 11.6928C1.36268 11.2584 1.60859 10.5016 2.22444 10.4121L10.1968 9.25365C10.4413 9.21811 10.6528 9.06451 10.7621 8.84291L14.3275 1.61874Z" fill="#E4E3E3" stroke="#E4E3E3" stroke-width="1.3" stroke-linejoin="round"/>
</svg>
