<svg width="13" height="12" viewBox="0 0 13 12" fill="none" xmlns="http://www.w3.org/2000/svg">
<path d="M6.24779 1.35715C6.35107 1.14788 6.64949 1.14788 6.75277 1.35715L8.08977 4.06621C8.13079 4.14931 8.21007 4.20691 8.30178 4.22024L11.2914 4.65466C11.5223 4.68822 11.6146 4.97203 11.4475 5.13492L9.28414 7.24364C9.21777 7.30832 9.18749 7.40152 9.20316 7.49286L9.71385 10.4704C9.7533 10.7004 9.51187 10.8758 9.30531 10.7672L6.63131 9.36142C6.54928 9.3183 6.45128 9.3183 6.36926 9.36142L3.69525 10.7672C3.48869 10.8758 3.24726 10.7004 3.28671 10.4704L3.7974 7.49286C3.81307 7.40152 3.78279 7.30832 3.71643 7.24364L1.55311 5.13492C1.386 4.97203 1.47821 4.68822 1.70916 4.65466L4.69879 4.22024C4.7905 4.20691 4.86977 4.14931 4.91079 4.06621L6.24779 1.35715Z" fill="currentColor" stroke="currentColor" stroke-width="1.3" stroke-linejoin="round"/>
</svg>
