<svg width="48" height="48" viewBox="0 0 48 48" fill="none" xmlns="http://www.w3.org/2000/svg">
<rect width="48" height="48" rx="24" fill="#353535"/>
<path d="M12.6507 23.9732C14.799 22.7825 17.1972 21.7887 19.4379 20.7898C23.2928 19.1538 27.163 17.5461 31.0723 16.0493C31.8329 15.7943 33.1995 15.5449 33.3335 16.6791C33.2601 18.2845 32.9582 19.8804 32.7512 21.4764C32.2257 24.9862 31.6183 28.4839 31.026 31.9821C30.8219 33.1473 29.3712 33.7505 28.443 33.0048C26.2122 31.4887 23.9643 29.9873 21.7621 28.4359C21.0407 27.6984 21.7096 26.6392 22.3539 26.1125C24.1912 24.2906 26.1397 22.7426 27.881 20.8266C28.3507 19.6853 26.9629 20.6471 26.5051 20.9419C23.9898 22.686 21.5361 24.5365 18.8841 26.0693C17.5295 26.8196 15.9507 26.1784 14.5968 25.7598C13.3828 25.254 11.6038 24.7445 12.6505 23.9733L12.6507 23.9732Z" fill="#CDCDCD"/>
</svg>
