<svg width="24" height="24" viewBox="0 0 24 24" fill="none" xmlns="http://www.w3.org/2000/svg">
<path d="M2.27186 11.9773C4.11332 10.9567 6.16887 10.1049 8.08948 9.24871C11.3937 7.84638 14.711 6.46834 18.0618 5.18541C18.7137 4.96683 19.8851 4.75309 20 5.72519C19.9371 7.10124 19.6783 8.46923 19.5009 9.83722C19.0505 12.8456 18.5298 15.8436 18.0221 18.842C17.8472 19.8408 16.6038 20.3578 15.8081 19.7187C13.8961 18.4192 11.9693 17.1322 10.0816 15.8025C9.46328 15.1703 10.0367 14.2624 10.5889 13.811C12.1638 12.2493 13.8339 10.9225 15.3264 9.28021C15.7291 8.30199 14.5395 9.1264 14.1471 9.37903C11.9911 10.874 9.88791 12.4602 7.61484 13.774C6.45376 14.4171 5.10049 13.8675 3.93994 13.5087C2.89937 13.0752 1.37453 12.6384 2.27176 11.9774L2.27186 11.9773Z" stroke="#565656"/>
</svg>
