<svg width="48" height="48" viewBox="0 0 48 48" fill="none" xmlns="http://www.w3.org/2000/svg">
<rect width="48" height="48" rx="24" fill="#353535"/>
<path d="M34.4705 20.1756C34.6381 20.6299 34.0915 21.6732 32.8305 23.3057C32.6555 23.5328 32.4186 23.8345 32.1198 24.2107C31.8282 24.5727 31.6278 24.8282 31.5184 24.9772C31.4091 25.1263 31.2961 25.3037 31.1795 25.5096C31.0702 25.7083 31.0264 25.8574 31.0483 25.9567C31.0775 26.049 31.1248 26.1697 31.1904 26.3187C31.2633 26.4678 31.3836 26.6204 31.5512 26.7765C31.7189 26.9327 31.9266 27.1208 32.1744 27.3408C32.2036 27.355 32.2218 27.3692 32.2291 27.3834C33.2569 28.3132 33.953 29.0975 34.3174 29.7363C34.3393 29.7718 34.3612 29.8179 34.383 29.8747C34.4122 29.9244 34.4377 30.0166 34.4596 30.1515C34.4887 30.2864 34.4887 30.407 34.4596 30.5135C34.4304 30.6199 34.3393 30.7193 34.1862 30.8116C34.0331 30.8968 33.8181 30.9393 33.5411 30.9393L30.7422 30.9819C30.5672 31.0174 30.3631 30.9997 30.1299 30.9287C29.8966 30.8577 29.7071 30.7796 29.5613 30.6945L29.3427 30.5667C29.124 30.4177 28.8689 30.1905 28.5773 29.8853C28.2858 29.5801 28.0343 29.3069 27.8229 29.0655C27.6188 28.8171 27.3965 28.6113 27.156 28.448C26.9227 28.2777 26.7186 28.2209 26.5437 28.2777C26.5218 28.2848 26.4927 28.299 26.4562 28.3203C26.4198 28.3345 26.3578 28.3842 26.2703 28.4693C26.1829 28.5545 26.1027 28.661 26.0298 28.7887C25.9642 28.9094 25.9023 29.0939 25.8439 29.3424C25.7929 29.5837 25.7711 29.8569 25.7783 30.1621C25.7783 30.2686 25.7638 30.368 25.7346 30.4602C25.7127 30.5454 25.6872 30.6093 25.6581 30.6519L25.6143 30.7051C25.4831 30.84 25.29 30.918 25.0349 30.9393H23.7775C23.26 30.9677 22.7279 30.911 22.1812 30.769C21.6345 30.6199 21.1535 30.4319 20.738 30.2047C20.3298 29.9705 19.9544 29.7363 19.6118 29.5021C19.2765 29.2607 19.0214 29.0549 18.8465 28.8845L18.5732 28.629C18.5003 28.558 18.3982 28.4516 18.267 28.3096C18.1431 28.1677 17.8843 27.8447 17.4907 27.3408C17.0971 26.8368 16.7108 26.301 16.3318 25.7331C15.9528 25.1653 15.5045 24.4165 14.987 23.4867C14.4767 22.5569 14.0029 21.5916 13.5656 20.5908C13.5219 20.4773 13.5 20.3814 13.5 20.3034C13.5 20.2253 13.5109 20.1685 13.5328 20.133L13.5765 20.0691C13.6859 19.9343 13.8936 19.8669 14.1997 19.8669L17.1955 19.8456C17.283 19.8598 17.3668 19.8846 17.447 19.9201C17.5272 19.9485 17.5855 19.9769 17.6219 20.0053L17.6766 20.0372C17.7932 20.1153 17.8807 20.2288 17.939 20.3779C18.0848 20.7328 18.2524 21.1019 18.442 21.4851C18.6315 21.8613 18.7809 22.1488 18.8902 22.3475L19.0652 22.6563C19.2765 23.0821 19.4806 23.4512 19.6774 23.7635C19.8742 24.0758 20.0492 24.3207 20.2022 24.4981C20.3626 24.6685 20.5157 24.8033 20.6615 24.9027C20.8072 25.0021 20.9311 25.0518 21.0332 25.0518C21.1352 25.0518 21.2336 25.034 21.3284 24.9985C21.343 24.9914 21.3612 24.9737 21.3831 24.9453C21.4049 24.9169 21.4487 24.8388 21.5143 24.7111C21.5799 24.5833 21.6272 24.4165 21.6564 24.2107C21.6929 24.0048 21.7293 23.7174 21.7657 23.3483C21.8022 22.9792 21.8022 22.5356 21.7657 22.0175C21.7512 21.7336 21.7184 21.4745 21.6673 21.2403C21.6163 21.006 21.5653 20.8428 21.5143 20.7505L21.4487 20.6228C21.2664 20.3814 20.9567 20.2288 20.5193 20.165C20.4246 20.1508 20.4428 20.0656 20.574 19.9094C20.6906 19.7746 20.8291 19.6681 20.9895 19.59C21.3758 19.4055 22.2468 19.3203 23.6026 19.3345C24.2003 19.3416 24.6923 19.3878 25.0786 19.4729C25.2244 19.5084 25.3446 19.5581 25.4394 19.622C25.5414 19.6788 25.618 19.7639 25.669 19.8775C25.72 19.984 25.7565 20.0975 25.7783 20.2182C25.8075 20.3318 25.8221 20.4915 25.8221 20.6973C25.8221 20.9031 25.8184 21.0983 25.8111 21.2829C25.8039 21.4674 25.7929 21.7194 25.7783 22.0388C25.7711 22.3511 25.7674 22.6421 25.7674 22.9118C25.7674 22.9899 25.7638 23.1389 25.7565 23.359C25.7492 23.579 25.7455 23.7493 25.7455 23.87C25.7528 23.9906 25.7674 24.1362 25.7893 24.3065C25.8111 24.4697 25.8512 24.6082 25.9095 24.7217C25.9751 24.8282 26.059 24.9134 26.161 24.9772C26.2193 24.9914 26.2813 25.0056 26.3469 25.0198C26.4125 25.034 26.5072 24.995 26.6312 24.9027C26.7551 24.8104 26.8936 24.6898 27.0466 24.5407C27.1997 24.3846 27.3892 24.1468 27.6152 23.8274C27.8411 23.5009 28.089 23.1176 28.3587 22.6776C28.796 21.9394 29.186 21.1409 29.5285 20.2821C29.5577 20.2111 29.5941 20.1508 29.6379 20.1011C29.6816 20.0443 29.7217 20.0053 29.7581 19.984L29.8019 19.952C29.8165 19.9449 29.8347 19.9378 29.8565 19.9307C29.8784 19.9165 29.9258 19.9059 29.9987 19.8988C30.0716 19.8846 30.1445 19.8811 30.2173 19.8882L33.3662 19.8669C33.6505 19.8314 33.8837 19.842 34.0659 19.8988C34.2482 19.9485 34.3612 20.0053 34.4049 20.0691L34.4705 20.1756Z" fill="#CDCDCD"/>
</svg>
