<svg width="18" height="10" viewBox="0 0 18 10" fill="none" xmlns="http://www.w3.org/2000/svg">
<path d="M17.9747 0.722231C18.1184 1.11159 17.6498 2.00591 16.569 3.40518C16.419 3.59986 16.216 3.85842 15.9598 4.18086C15.7099 4.49114 15.5381 4.71015 15.4444 4.83791C15.3507 4.96567 15.2538 5.11776 15.1539 5.29419C15.0601 5.46454 15.0227 5.5923 15.0414 5.67747C15.0664 5.75656 15.107 5.85999 15.1632 5.98774C15.2257 6.1155 15.3288 6.24631 15.4725 6.38015C15.6162 6.51399 15.7942 6.67521 16.0067 6.86381C16.0317 6.87598 16.0473 6.88814 16.0535 6.90031C16.9345 7.69729 17.5311 8.36955 17.8435 8.91709C17.8622 8.94751 17.881 8.98705 17.8997 9.03572C17.9247 9.07831 17.9466 9.1574 17.9653 9.27299C17.9903 9.38858 17.9903 9.49201 17.9653 9.58326C17.9403 9.67452 17.8622 9.75969 17.731 9.83878C17.5998 9.91179 17.4155 9.94829 17.1781 9.94829L14.779 9.98479C14.629 10.0152 14.4541 10 14.2542 9.93916C14.0543 9.87832 13.8918 9.8114 13.7669 9.7384L13.5794 9.62889C13.392 9.50113 13.1733 9.30645 12.9234 9.04485C12.6735 8.78324 12.458 8.54902 12.2768 8.34217C12.1018 8.12924 11.9113 7.95281 11.7051 7.81288C11.5052 7.66687 11.3302 7.6182 11.1803 7.66687C11.1616 7.67295 11.1366 7.68512 11.1053 7.70337C11.0741 7.71554 11.021 7.75813 10.946 7.83113C10.871 7.90414 10.8023 7.99539 10.7398 8.1049C10.6836 8.20833 10.6305 8.36651 10.5805 8.57944C10.5368 8.78629 10.518 9.02051 10.5243 9.28211C10.5243 9.37337 10.5118 9.45854 10.4868 9.53763C10.4681 9.61064 10.4462 9.66539 10.4212 9.70189L10.3837 9.74752C10.2713 9.86312 10.1057 9.93004 9.88702 9.94829H8.80929C8.3657 9.97262 7.90962 9.92395 7.44104 9.80228C6.97246 9.67452 6.56011 9.5133 6.20399 9.31862C5.85412 9.11785 5.53236 8.91709 5.23872 8.71632C4.95132 8.50947 4.73265 8.33305 4.58271 8.18703L4.34842 7.96802C4.28594 7.90718 4.19847 7.81592 4.08601 7.69425C3.9798 7.57257 3.75801 7.29576 3.42063 6.86381C3.08325 6.43186 2.75212 5.97254 2.42724 5.48583C2.10236 4.99913 1.71812 4.35729 1.27454 3.56032C0.837196 2.76334 0.431093 1.93595 0.0562298 1.07813C0.0187435 0.980792 0 0.898661 0 0.83174C0 0.764818 0.00937173 0.716148 0.0281149 0.685729L0.0656011 0.630974C0.159317 0.515383 0.337377 0.457587 0.599782 0.457587L3.1676 0.439335C3.24257 0.451503 3.31442 0.472796 3.38314 0.503215C3.45187 0.527551 3.50185 0.551886 3.53309 0.576221L3.57995 0.603598C3.67991 0.67052 3.75488 0.76786 3.80486 0.89562C3.92982 1.19981 4.07352 1.51616 4.23596 1.84469C4.3984 2.16713 4.52648 2.41352 4.62019 2.58387L4.77014 2.84851C4.95132 3.21354 5.12626 3.5299 5.29495 3.79758C5.46364 4.06527 5.61358 4.27516 5.74478 4.42726C5.88223 4.57327 6.01344 4.68886 6.13839 4.77403C6.26334 4.8592 6.36956 4.90179 6.45702 4.90179C6.54449 4.90179 6.62884 4.88658 6.71006 4.85616C6.72255 4.85008 6.73817 4.83487 6.75692 4.81053C6.77566 4.7862 6.81315 4.71928 6.86937 4.60977C6.9256 4.50026 6.96621 4.35729 6.9912 4.18086C7.02244 4.00443 7.05368 3.75804 7.08492 3.44168C7.11616 3.12532 7.11616 2.74509 7.08492 2.30097C7.07242 2.05762 7.04431 1.83556 7.00058 1.6348C6.95684 1.43403 6.91311 1.29411 6.86937 1.21502L6.81314 1.10551C6.65695 0.898661 6.39142 0.76786 6.01656 0.713106C5.93534 0.700938 5.95096 0.627933 6.06342 0.49409C6.16338 0.378498 6.28209 0.287242 6.41954 0.22032C6.75067 0.0621413 7.49727 -0.0108641 8.65935 0.00130372C9.17166 0.00738732 9.59338 0.0469317 9.92451 0.119937C10.0495 0.150356 10.1526 0.192943 10.2338 0.247696C10.3212 0.296367 10.3868 0.369372 10.4306 0.466713C10.4743 0.55797 10.5055 0.65531 10.5243 0.758734C10.5493 0.856075 10.5618 0.99296 10.5618 1.16939C10.5618 1.34582 10.5587 1.51312 10.5524 1.6713C10.5462 1.82948 10.5368 2.04545 10.5243 2.31923C10.518 2.58691 10.5149 2.83635 10.5149 3.06753C10.5149 3.13445 10.5118 3.26221 10.5055 3.45081C10.4993 3.63941 10.4962 3.78542 10.4962 3.88884C10.5024 3.99226 10.5149 4.11698 10.5337 4.26299C10.5524 4.40292 10.5868 4.52155 10.6368 4.6189C10.693 4.71015 10.7648 4.78316 10.8523 4.83791C10.9023 4.85008 10.9554 4.86225 11.0116 4.87441C11.0678 4.88658 11.1491 4.85312 11.2553 4.77403C11.3615 4.69494 11.4802 4.59152 11.6114 4.46376C11.7426 4.32991 11.905 4.12611 12.0987 3.85234C12.2924 3.57248 12.5048 3.24396 12.736 2.86676C13.1109 2.23405 13.4451 1.54963 13.7387 0.813488C13.7637 0.75265 13.795 0.700938 13.8325 0.658352C13.8699 0.609682 13.9043 0.576221 13.9355 0.557969L13.973 0.530592C13.9855 0.524509 14.0012 0.518425 14.0199 0.512341C14.0386 0.500174 14.0792 0.491048 14.1417 0.484964C14.2042 0.472796 14.2667 0.469755 14.3292 0.475839L17.0282 0.457587C17.2718 0.427168 17.4718 0.436294 17.628 0.484964C17.7841 0.527551 17.881 0.576221 17.9185 0.630974L17.9747 0.722231Z" fill="currentColor"/>
</svg>
