<svg width="25" height="24" viewBox="0 0 25 24" fill="none" xmlns="http://www.w3.org/2000/svg">
<path d="M20.7768 8.54464C20.2946 7.45982 19.6518 6.49554 18.808 5.61161C17.9241 4.80804 16.9598 4.16518 15.875 3.68304C14.7902 3.24107 13.6652 3 12.5 3C10.8929 3 9.40625 3.40179 8.04018 4.20536C6.67411 5.00893 5.58929 6.09375 4.78571 7.45982C3.98214 8.82589 3.58036 10.3125 3.58036 11.9196C3.58036 13.4548 3.94696 14.88 4.68015 16.1952C4.74622 16.3137 4.76517 16.4533 4.7288 16.584L3.59337 20.6644C3.55199 20.8132 3.68756 20.9507 3.83687 20.9115L8.04531 19.8059C8.17087 19.7729 8.30403 19.7907 8.4187 19.8515C9.65942 20.51 11.0431 20.8393 12.5 20.8393C14.1071 20.8393 15.5938 20.4375 16.9598 19.6339C18.3259 18.8304 19.4509 17.7455 20.2545 16.3795C21.058 15.0134 21.5 13.5268 21.5 11.9196C21.5 10.7545 21.2589 9.62946 20.7768 8.54464Z" stroke="currentColor" stroke-width="1.6"/>
<path d="M16.1089 13.6516L16.2156 13.7279C16.3578 13.8043 16.4644 13.8807 16.5 13.9189C16.5 13.9952 16.5 14.1098 16.5 14.3007C16.5 14.5298 16.4289 14.7208 16.3578 14.9499C16.2867 15.179 16.0733 15.3699 15.7889 15.599C15.5044 15.8282 15.2556 15.9427 15.0422 15.9427C14.6867 16.0191 14.3667 16.0191 14.0822 15.9427C13.7267 15.8663 13.2289 15.7136 12.66 15.4081C11.4511 14.8735 10.3489 13.8043 9.35333 12.2768L9.28222 12.2005C8.74889 11.4368 8.5 10.7112 8.5 10.0239C8.5 9.3747 8.71333 8.80191 9.14 8.30549L9.17556 8.2673C9.31778 8.11456 9.49556 8 9.70889 8H10.1356C10.2067 8 10.2778 8.03819 10.3489 8.07637C10.42 8.11456 10.4556 8.19093 10.5267 8.34368L11.1311 9.90931C11.2022 10.0621 11.2022 10.2148 11.1667 10.2912C11.0244 10.5585 10.8822 10.7876 10.7044 10.9785C10.5978 11.0931 10.5267 11.1695 10.5267 11.2458C10.4911 11.3222 10.5267 11.3604 10.5978 11.4368C10.9178 12.1241 11.3089 12.6205 11.7711 13.0024C12.0911 13.3079 12.5889 13.6134 13.2644 13.957C13.4422 14.0716 13.5844 14.0716 13.6911 13.9189C13.9756 13.537 14.1889 13.2697 14.3311 13.0788C14.3667 13.0024 14.4378 12.926 14.5089 12.926C14.58 12.926 14.6511 12.9642 14.7578 12.9642C14.9356 13.0406 15.3978 13.2697 16.1089 13.6516Z" fill="currentColor"/>
</svg>
