<svg width="24" height="24" viewBox="0 0 24 24" fill="none" xmlns="http://www.w3.org/2000/svg">
<path d="M20.2768 8.54464C19.7946 7.45982 19.1518 6.49554 18.308 5.61161C17.4241 4.80804 16.4598 4.16518 15.375 3.68304C14.2902 3.24107 13.1652 3 12 3C10.3929 3 8.90625 3.40179 7.54018 4.20536C6.17411 5.00893 5.08929 6.09375 4.28571 7.45982C3.48214 8.82589 3.08036 10.3125 3.08036 11.9196C3.08036 13.4548 3.44696 14.88 4.18015 16.1952C4.24622 16.3137 4.26517 16.4533 4.2288 16.584L3.09337 20.6644C3.05199 20.8132 3.18756 20.9507 3.33687 20.9115L7.54531 19.8059C7.67087 19.7729 7.80403 19.7907 7.9187 19.8515C9.15942 20.51 10.5431 20.8393 12 20.8393C13.6071 20.8393 15.0938 20.4375 16.4598 19.6339C17.8259 18.8304 18.9509 17.7455 19.7545 16.3795C20.558 15.0134 21 13.5268 21 11.9196C21 10.7545 20.7589 9.62946 20.2768 8.54464Z" stroke="#5D5D5D"/>
<path d="M15.6089 13.6516L15.7156 13.7279C15.8578 13.8043 15.9644 13.8807 16 13.9189C16 13.9952 16 14.1098 16 14.3007C16 14.5298 15.9289 14.7208 15.8578 14.9499C15.7867 15.179 15.5733 15.3699 15.2889 15.599C15.0044 15.8282 14.7556 15.9427 14.5422 15.9427C14.1867 16.0191 13.8667 16.0191 13.5822 15.9427C13.2267 15.8663 12.7289 15.7136 12.16 15.4081C10.9511 14.8735 9.84889 13.8043 8.85333 12.2768L8.78222 12.2005C8.24889 11.4368 8 10.7112 8 10.0239C8 9.3747 8.21333 8.80191 8.64 8.30549L8.67556 8.2673C8.81778 8.11456 8.99556 8 9.20889 8H9.63556C9.70667 8 9.77778 8.03819 9.84889 8.07637C9.92 8.11456 9.95556 8.19093 10.0267 8.34368L10.6311 9.90931C10.7022 10.0621 10.7022 10.2148 10.6667 10.2912C10.5244 10.5585 10.3822 10.7876 10.2044 10.9785C10.0978 11.0931 10.0267 11.1695 10.0267 11.2458C9.99111 11.3222 10.0267 11.3604 10.0978 11.4368C10.4178 12.1241 10.8089 12.6205 11.2711 13.0024C11.5911 13.3079 12.0889 13.6134 12.7644 13.957C12.9422 14.0716 13.0844 14.0716 13.1911 13.9189C13.4756 13.537 13.6889 13.2697 13.8311 13.0788C13.8667 13.0024 13.9378 12.926 14.0089 12.926C14.08 12.926 14.1511 12.9642 14.2578 12.9642C14.4356 13.0406 14.8978 13.2697 15.6089 13.6516Z" fill="#5D5D5D"/>
</svg>
