<svg width="22" height="22" viewBox="0 0 22 22" fill="none" xmlns="http://www.w3.org/2000/svg">
<path d="M20.6004 15.5597V16.3097C21.0146 16.3097 21.3504 15.9739 21.3504 15.5597H20.6004ZM20.6004 10.2796H21.3504C21.3504 9.86544 21.0146 9.52965 20.6004 9.52965V10.2796ZM6.27482 5.32877C5.92639 5.55275 5.82552 6.01679 6.04951 6.36522C6.2735 6.71364 6.73753 6.81452 7.08596 6.59053L6.27482 5.32877ZM13.4004 1.63965L13.9924 1.17919C13.7541 0.872785 13.3213 0.798855 12.9948 1.00876L13.4004 1.63965ZM16.1684 6.4201C16.4227 6.74707 16.8939 6.80597 17.2208 6.55166C17.5478 6.29736 17.6067 5.82615 17.3524 5.49919L16.1684 6.4201ZM20.6004 14.8097H17.4804V16.3097H20.6004V14.8097ZM17.4804 11.0296H20.6004V9.52965H17.4804V11.0296ZM19.8504 10.2796V15.5597H21.3504V10.2796H19.8504ZM15.5904 12.9197C15.5904 11.8758 16.4366 11.0296 17.4804 11.0296V9.52965C15.6081 9.52965 14.0904 11.0474 14.0904 12.9197H15.5904ZM17.4804 14.8097C16.4366 14.8097 15.5904 13.9635 15.5904 12.9197H14.0904C14.0904 14.7919 15.6081 16.3097 17.4804 16.3097V14.8097ZM7.08596 6.59053L13.806 2.27053L12.9948 1.00876L6.27482 5.32877L7.08596 6.59053ZM12.8084 2.1001L16.1684 6.4201L17.3524 5.49919L13.9924 1.17919L12.8084 2.1001ZM2.36039 6.70965H18.6804V5.20965H2.36039V6.70965ZM18.6804 19.6097H2.36039V21.1097H18.6804V19.6097ZM2.15039 19.3997V6.91965H0.650391V19.3997H2.15039ZM2.36039 19.6097C2.24441 19.6097 2.15039 19.5156 2.15039 19.3997H0.650391C0.650391 20.3441 1.41598 21.1097 2.36039 21.1097V19.6097ZM18.8904 19.3997C18.8904 19.5156 18.7964 19.6097 18.6804 19.6097V21.1097C19.6248 21.1097 20.3904 20.3441 20.3904 19.3997H18.8904ZM18.6804 6.70965C18.7964 6.70965 18.8904 6.80367 18.8904 6.91965H20.3904C20.3904 5.97524 19.6248 5.20965 18.6804 5.20965V6.70965ZM2.36039 5.20965C1.41598 5.20965 0.650391 5.97524 0.650391 6.91965H2.15039C2.15039 6.80367 2.24441 6.70965 2.36039 6.70965V5.20965ZM18.8904 16.2797V19.3997H20.3904V16.2797H18.8904ZM18.8904 6.91965V9.43965H20.3904V6.91965H18.8904Z" fill="black"/>
</svg>
