<svg width="48" height="48" viewBox="0 0 48 48" fill="none" xmlns="http://www.w3.org/2000/svg">
<rect width="48" height="48" rx="24" fill="#353535"/>
<path fill-rule="evenodd" clip-rule="evenodd" d="M32.0404 16.3034C33.009 16.5627 33.7703 17.3239 34.0295 18.2926C34.4981 20.0465 34.5 23.708 34.5 23.708C34.5 23.708 34.5 27.3696 34.0295 29.1235C33.7703 30.0921 33.009 30.8533 32.0404 31.1126C30.2866 31.583 24.7494 31.583 24.7494 31.583C24.7494 31.583 17.7135 31.583 15.9595 31.1126C14.9909 30.8533 14.2297 30.0921 13.9704 29.1235C13.5 27.3696 13.5 23.708 13.5 23.708C13.5 23.708 13.5 20.0465 13.9704 18.2926C14.2297 17.3239 14.9909 16.5627 15.9595 16.3034C17.7135 15.833 24.7494 15.833 24.7494 15.833C24.7494 15.833 30.2866 15.833 32.0404 16.3034ZM27.8764 23.7084L22.0312 27.0829V20.3339L27.8764 23.7084Z" fill="#CDCDCD"/>
</svg>
